<mxfile host="Electron" modified="2024-04-03T21:59:29.879Z" agent="Mozilla/5.0 (Macintosh; Intel Mac OS X 10_15_7) AppleWebKit/537.36 (KHTML, like Gecko) draw.io/24.1.0 Chrome/120.0.6099.109 Electron/28.1.0 Safari/537.36" etag="zzYicTs5Q7ZByYAT2F8M" version="24.1.0" type="device">
  <diagram name="Page-1" id="Xi0ASLfg8AyX5gHI9oar">
    <mxGraphModel dx="1434" dy="907" grid="1" gridSize="10" guides="1" tooltips="1" connect="1" arrows="1" fold="1" page="1" pageScale="1" pageWidth="850" pageHeight="1100" math="0" shadow="0">
      <root>
        <mxCell id="0" />
        <mxCell id="1" parent="0" />
        <mxCell id="zPg09gOd_s1WVAWf3Pkt-1" value="&lt;span style=&quot;font-size: 14px;&quot; id=&quot;docs-internal-guid-660d944a-7fff-c987-f53c-37a843cf68a6&quot;&gt;&lt;font style=&quot;font-size: 14px;&quot; face=&quot;Courier New&quot;&gt;&lt;p dir=&quot;ltr&quot; style=&quot;font-weight: normal; line-height: 120%; margin-top: 0pt; margin-bottom: 0pt;&quot;&gt;&lt;span style=&quot;color: rgb(0, 0, 0); background-color: transparent; font-weight: 400; font-style: normal; font-variant: normal; text-decoration: none; vertical-align: baseline; white-space: pre-wrap;&quot;&gt;...&lt;/span&gt;&lt;/p&gt;&lt;p dir=&quot;ltr&quot; style=&quot;font-weight: normal; line-height: 120%; margin-top: 0pt; margin-bottom: 0pt;&quot;&gt;&lt;span style=&quot;color: rgb(0, 0, 0); background-color: transparent; font-weight: 400; font-style: normal; font-variant: normal; text-decoration: none; vertical-align: baseline; white-space: pre-wrap;&quot;&gt;...&lt;/span&gt;&lt;/p&gt;&lt;p dir=&quot;ltr&quot; style=&quot;font-weight: normal; line-height: 120%; margin-top: 0pt; margin-bottom: 0pt;&quot;&gt;&lt;span style=&quot;color: rgb(0, 0, 0); background-color: transparent; font-weight: 400; font-style: normal; font-variant: normal; text-decoration: none; vertical-align: baseline; white-space: pre-wrap;&quot;&gt;&amp;nbsp;&amp;nbsp;%load = load &amp;lt;4 x i32&amp;gt;, ptr %sv_flags, !tbaa !24&lt;/span&gt;&lt;/p&gt;&lt;p dir=&quot;ltr&quot; style=&quot;font-weight: normal; line-height: 120%; margin-top: 0pt; margin-bottom: 0pt;&quot;&gt;&lt;span style=&quot;color: rgb(0, 0, 0); background-color: transparent; font-weight: 400; font-style: normal; font-variant: normal; text-decoration: none; vertical-align: baseline; white-space: pre-wrap;&quot;&gt;...&lt;/span&gt;&lt;/p&gt;&lt;p dir=&quot;ltr&quot; style=&quot;font-weight: normal; line-height: 120%; margin-top: 0pt; margin-bottom: 0pt;&quot;&gt;&lt;span style=&quot;color: rgb(0, 0, 0); background-color: transparent; font-weight: 400; font-style: normal; font-variant: normal; text-decoration: none; vertical-align: baseline; white-space: pre-wrap;&quot;&gt;...&lt;/span&gt;&lt;/p&gt;&lt;p dir=&quot;ltr&quot; style=&quot;line-height: 120%; margin-top: 0pt; margin-bottom: 0pt;&quot;&gt;&lt;span style=&quot;color: rgb(0, 0, 0); background-color: transparent; font-style: normal; font-variant: normal; text-decoration: none; vertical-align: baseline; white-space: pre-wrap;&quot;&gt;&amp;nbsp;&amp;nbsp;%and = and &amp;lt;4 x i32&amp;gt; &lt;/span&gt;&lt;span style=&quot;color: rgb(0, 0, 0); background-color: transparent; font-style: normal; font-variant: normal; text-decoration: none; vertical-align: baseline; white-space: pre-wrap;&quot;&gt;%&lt;/span&gt;&lt;span style=&quot;color: rgb(0, 0, 0); background-color: transparent; font-style: normal; font-variant: normal; text-decoration: none; vertical-align: baseline; white-space: pre-wrap;&quot;&gt;shuf0&lt;/span&gt;&lt;span style=&quot;color: rgb(0, 0, 0); background-color: transparent; font-style: normal; font-variant: normal; text-decoration: none; vertical-align: baseline; white-space: pre-wrap;&quot;&gt;, &amp;lt;i32 255, i32 65280, i32 16826623, i32 2097152&amp;gt;&lt;/span&gt;&lt;/p&gt;&lt;p dir=&quot;ltr&quot; style=&quot;font-weight: normal; line-height: 120%; margin-top: 0pt; margin-bottom: 0pt;&quot;&gt;&lt;span style=&quot;color: rgb(0, 0, 0); background-color: transparent; font-weight: 400; font-style: normal; font-variant: normal; text-decoration: none; vertical-align: baseline; white-space: pre-wrap;&quot;&gt;...&lt;/span&gt;&lt;/p&gt;&lt;p dir=&quot;ltr&quot; style=&quot;font-weight: normal; line-height: 120%; margin-top: 0pt; margin-bottom: 0pt;&quot;&gt;&lt;span style=&quot;color: rgb(0, 0, 0); background-color: transparent; font-weight: 400; font-style: normal; font-variant: normal; text-decoration: none; vertical-align: baseline; white-space: pre-wrap;&quot;&gt;...&lt;/span&gt;&lt;/p&gt;&lt;p dir=&quot;ltr&quot; style=&quot;font-weight: bold; line-height: 120%; margin-top: 0pt; margin-bottom: 0pt;&quot;&gt;&lt;span style=&quot;font-weight: 400; color: rgb(0, 0, 0); background-color: transparent; font-style: normal; font-variant: normal; text-decoration: none; vertical-align: baseline; white-space: pre-wrap;&quot;&gt;&amp;nbsp;&amp;nbsp;%eq = icmp eq &amp;lt;4 x i32&amp;gt; %&lt;/span&gt;&lt;span style=&quot;font-weight: 700; color: rgb(0, 0, 0); background-color: transparent; font-style: normal; font-variant: normal; text-decoration: none; vertical-align: baseline; white-space: pre-wrap;&quot;&gt;and&lt;/span&gt;&lt;span style=&quot;font-weight: 400; color: rgb(0, 0, 0); background-color: transparent; font-style: normal; font-variant: normal; text-decoration: none; vertical-align: baseline; white-space: pre-wrap;&quot;&gt;, &lt;/span&gt;&lt;span style=&quot;color: rgb(0, 0, 0); background-color: transparent; font-style: normal; font-variant: normal; text-decoration: none; vertical-align: baseline; white-space: pre-wrap;&quot;&gt;%load&lt;/span&gt;&lt;/p&gt;&lt;p dir=&quot;ltr&quot; style=&quot;font-weight: normal; line-height: 120%; margin-top: 0pt; margin-bottom: 0pt;&quot;&gt;&lt;span style=&quot;color: rgb(0, 0, 0); background-color: transparent; font-weight: 400; font-style: normal; font-variant: normal; text-decoration: none; vertical-align: baseline; white-space: pre-wrap;&quot;&gt;...&lt;/span&gt;&lt;/p&gt;&lt;p dir=&quot;ltr&quot; style=&quot;font-weight: normal; line-height: 120%; margin-top: 0pt; margin-bottom: 0pt;&quot;&gt;&lt;span style=&quot;color: rgb(0, 0, 0); background-color: transparent; font-weight: 400; font-style: normal; font-variant: normal; text-decoration: none; vertical-align: baseline; white-space: pre-wrap;&quot;&gt;...&lt;/span&gt;&lt;/p&gt;&lt;p dir=&quot;ltr&quot; style=&quot;font-weight: bold; line-height: 120%; margin-top: 0pt; margin-bottom: 0pt;&quot;&gt;&lt;span style=&quot;font-weight: 400; color: rgb(0, 0, 0); background-color: transparent; font-style: normal; font-variant: normal; text-decoration: none; vertical-align: baseline; white-space: pre-wrap;&quot;&gt;&amp;nbsp;&amp;nbsp;%ne = icmp ne &amp;lt;4 x i32&amp;gt; %&lt;/span&gt;&lt;span style=&quot;font-weight: 700; color: rgb(0, 0, 0); background-color: transparent; font-style: normal; font-variant: normal; text-decoration: none; vertical-align: baseline; white-space: pre-wrap;&quot;&gt;and&lt;/span&gt;&lt;span style=&quot;font-weight: 400; color: rgb(0, 0, 0); background-color: transparent; font-style: normal; font-variant: normal; text-decoration: none; vertical-align: baseline; white-space: pre-wrap;&quot;&gt;, &lt;/span&gt;&lt;span style=&quot;color: rgb(0, 0, 0); background-color: transparent; font-style: normal; font-variant: normal; text-decoration: none; vertical-align: baseline; white-space: pre-wrap;&quot;&gt;%load&lt;/span&gt;&lt;/p&gt;&lt;p dir=&quot;ltr&quot; style=&quot;font-weight: normal; line-height: 120%; margin-top: 0pt; margin-bottom: 0pt;&quot;&gt;&lt;span style=&quot;color: rgb(0, 0, 0); background-color: transparent; font-weight: 400; font-style: normal; font-variant: normal; text-decoration: none; vertical-align: baseline; white-space: pre-wrap;&quot;&gt;...&lt;/span&gt;&lt;/p&gt;&lt;p dir=&quot;ltr&quot; style=&quot;font-weight: normal; line-height: 120%; margin-top: 0pt; margin-bottom: 0pt;&quot;&gt;&lt;span style=&quot;color: rgb(0, 0, 0); background-color: transparent; font-weight: 400; font-style: normal; font-variant: normal; text-decoration: none; vertical-align: baseline; white-space: pre-wrap;&quot;&gt;...&lt;/span&gt;&lt;/p&gt;&lt;p dir=&quot;ltr&quot; style=&quot;font-weight: normal; line-height: 120%; margin-top: 0pt; margin-bottom: 0pt;&quot;&gt;&lt;span style=&quot;color: rgb(0, 0, 0); background-color: transparent; font-weight: 400; font-style: normal; font-variant: normal; text-decoration: none; vertical-align: baseline; white-space: pre-wrap;&quot;&gt;&amp;nbsp;&amp;nbsp;%shuf1 = shufflevector &amp;lt;4 x i1&amp;gt; %&lt;/span&gt;&lt;span style=&quot;color: rgb(0, 0, 0); background-color: transparent; font-weight: 700; font-style: normal; font-variant: normal; text-decoration: none; vertical-align: baseline; white-space: pre-wrap;&quot;&gt;eq&lt;/span&gt;&lt;span style=&quot;color: rgb(0, 0, 0); background-color: transparent; font-weight: 400; font-style: normal; font-variant: normal; text-decoration: none; vertical-align: baseline; white-space: pre-wrap;&quot;&gt;, &amp;lt;4 x i1&amp;gt; %&lt;/span&gt;&lt;span style=&quot;color: rgb(0, 0, 0); background-color: transparent; font-weight: 700; font-style: normal; font-variant: normal; text-decoration: none; vertical-align: baseline; white-space: pre-wrap;&quot;&gt;ne&lt;/span&gt;&lt;span style=&quot;color: rgb(0, 0, 0); background-color: transparent; font-weight: 400; font-style: normal; font-variant: normal; text-decoration: none; vertical-align: baseline; white-space: pre-wrap;&quot;&gt;, &amp;lt;4 x i32&amp;gt; &amp;lt;i32 0, i32 5, i32 2, i32 7&amp;gt;&lt;/span&gt;&lt;/p&gt;&lt;p dir=&quot;ltr&quot; style=&quot;font-weight: normal; line-height: 120%; margin-top: 0pt; margin-bottom: 0pt;&quot;&gt;&lt;span style=&quot;color: rgb(0, 0, 0); background-color: transparent; font-weight: 400; font-style: normal; font-variant: normal; text-decoration: none; vertical-align: baseline; white-space: pre-wrap;&quot;&gt;...&lt;/span&gt;&lt;/p&gt;&lt;p dir=&quot;ltr&quot; style=&quot;font-weight: normal; line-height: 120%; margin-top: 0pt; margin-bottom: 0pt;&quot;&gt;&lt;span style=&quot;color: rgb(0, 0, 0); background-color: transparent; font-weight: 400; font-style: normal; font-variant: normal; text-decoration: none; vertical-align: baseline; white-space: pre-wrap;&quot;&gt;...&lt;/span&gt;&lt;/p&gt;&lt;/font&gt;&lt;/span&gt;" style="text;whiteSpace=wrap;html=1;" parent="1" vertex="1">
          <mxGeometry x="40" y="60" width="780" height="300" as="geometry" />
        </mxCell>
        <mxCell id="zPg09gOd_s1WVAWf3Pkt-3" value="&lt;div style=&quot;font-size: 10px;&quot;&gt;push into worklist&lt;/div&gt;" style="shape=callout;whiteSpace=wrap;html=1;perimeter=calloutPerimeter;position2=0.8;size=10;position=0.6;fillColor=#f5f5f5;strokeColor=#666666;base=20;fontSize=10;fontColor=#333333;" parent="1" vertex="1">
          <mxGeometry x="260" y="270" width="100" height="30" as="geometry" />
        </mxCell>
        <mxCell id="zPg09gOd_s1WVAWf3Pkt-9" value="&lt;div style=&quot;font-size: 10px;&quot;&gt;push into worklist&lt;/div&gt;" style="shape=callout;whiteSpace=wrap;html=1;perimeter=calloutPerimeter;position2=0.85;size=10;position=0.65;fillColor=#f5f5f5;strokeColor=#666666;base=20;fontSize=10;fontColor=#333333;" parent="1" vertex="1">
          <mxGeometry x="365" y="270" width="100" height="30" as="geometry" />
        </mxCell>
        <mxCell id="zPg09gOd_s1WVAWf3Pkt-23" value=" define &lt;4 x i1&gt; @src(&lt;4 x i32&gt; %x, &lt;4 x i32&gt; %y) {&#xa; entry:&#xa;   %0 = icmp eq &lt;4 x i32&gt; %x, %y&#xa;   %1 = icmp ne &lt;4 x i32&gt; %x, %y&#xa;   %2 = shufflevector &lt;4 x i1&gt; %0, &lt;4 x i1&gt; %1, &lt;4 x i32&gt; &lt;i32 0, i32 5, i32 2, i32 7&gt;&#xa;   ret &lt;4 x i1&gt; %2&#xa; }" style="text;whiteSpace=wrap;fontFamily=Courier New;fontSize=14;strokeColor=default;strokeWidth=2;glass=0;" parent="1" vertex="1">
          <mxGeometry x="50" y="440" width="740" height="130" as="geometry" />
        </mxCell>
        <mxCell id="zPg09gOd_s1WVAWf3Pkt-24" value="" style="endArrow=classic;html=1;rounded=0;strokeWidth=3;" parent="1" edge="1">
          <mxGeometry relative="1" as="geometry">
            <mxPoint x="415" y="340" as="sourcePoint" />
            <mxPoint x="414.66" y="430" as="targetPoint" />
          </mxGeometry>
        </mxCell>
        <mxCell id="zPg09gOd_s1WVAWf3Pkt-25" value="&lt;span style=&quot;font-size: 15px;&quot;&gt;extract&lt;/span&gt;" style="edgeLabel;html=1;align=center;verticalAlign=middle;resizable=0;points=[];" parent="zPg09gOd_s1WVAWf3Pkt-24" vertex="1" connectable="0">
          <mxGeometry y="-1" relative="1" as="geometry">
            <mxPoint x="26" y="-5" as="offset" />
          </mxGeometry>
        </mxCell>
        <mxCell id="dzGT63xMT5lQV3Npohnb-1" value="&lt;b&gt;&amp;nbsp;first visit:&lt;/b&gt; beyond depth limit, push into Unknown and Visited. &lt;b&gt;second visit:&lt;/b&gt; skipped" style="shape=callout;whiteSpace=wrap;html=1;perimeter=calloutPerimeter;position2=0.08;size=10;position=0.09;fillColor=#f5f5f5;strokeColor=#666666;fontSize=10;fontColor=#333333;" parent="1" vertex="1">
          <mxGeometry x="70" y="70" width="400" height="30" as="geometry" />
        </mxCell>
        <mxCell id="dzGT63xMT5lQV3Npohnb-2" value="&lt;b&gt;&amp;nbsp;first visit:&lt;/b&gt; beyond depth limit, push into Unknown and Visited. &lt;b&gt;second visit:&lt;/b&gt; skipped" style="shape=callout;whiteSpace=wrap;html=1;perimeter=calloutPerimeter;position2=0.08;size=10;position=0.09;fillColor=#f5f5f5;strokeColor=#666666;fontSize=10;fontColor=#333333;" parent="1" vertex="1">
          <mxGeometry x="70" y="120" width="400" height="30" as="geometry" />
        </mxCell>
        <mxCell id="dzGT63xMT5lQV3Npohnb-7" value="&lt;div style=&quot;font-size: 10px;&quot;&gt;push into worklist&lt;/div&gt;" style="shape=callout;whiteSpace=wrap;html=1;perimeter=calloutPerimeter;position2=0.6;size=10;position=0.3;fillColor=#f5f5f5;strokeColor=#666666;base=30;fontSize=10;fontColor=#333333;" parent="1" vertex="1">
          <mxGeometry x="225" y="170" width="100" height="30" as="geometry" />
        </mxCell>
        <mxCell id="dzGT63xMT5lQV3Npohnb-8" value="&lt;div style=&quot;font-size: 10px;&quot;&gt;push into worklist&lt;/div&gt;" style="shape=callout;whiteSpace=wrap;html=1;perimeter=calloutPerimeter;position2=0.2;size=10;position=0.3;fillColor=#f5f5f5;strokeColor=#666666;base=30;fontSize=10;fontColor=#333333;" parent="1" vertex="1">
          <mxGeometry x="330" y="170" width="100" height="30" as="geometry" />
        </mxCell>
        <mxCell id="dzGT63xMT5lQV3Npohnb-11" value="push into Visited and Harvested" style="shape=callout;whiteSpace=wrap;html=1;perimeter=calloutPerimeter;position2=0.08;size=10;position=0.09;fillColor=#f5f5f5;strokeColor=#666666;fontSize=10;fontColor=#333333;" parent="1" vertex="1">
          <mxGeometry x="70" y="170" width="150" height="30" as="geometry" />
        </mxCell>
        <mxCell id="dzGT63xMT5lQV3Npohnb-12" value="&lt;div style=&quot;font-size: 10px;&quot;&gt;push into worklist&lt;/div&gt;" style="shape=callout;whiteSpace=wrap;html=1;perimeter=calloutPerimeter;position2=0.6;size=10;position=0.3;fillColor=#f5f5f5;strokeColor=#666666;base=30;fontSize=10;fontColor=#333333;" parent="1" vertex="1">
          <mxGeometry x="225" y="220" width="100" height="30" as="geometry" />
        </mxCell>
        <mxCell id="dzGT63xMT5lQV3Npohnb-13" value="&lt;div style=&quot;font-size: 10px;&quot;&gt;push into worklist&lt;/div&gt;" style="shape=callout;whiteSpace=wrap;html=1;perimeter=calloutPerimeter;position2=0.2;size=10;position=0.3;fillColor=#f5f5f5;strokeColor=#666666;base=30;fontSize=10;fontColor=#333333;" parent="1" vertex="1">
          <mxGeometry x="330" y="220" width="100" height="30" as="geometry" />
        </mxCell>
        <mxCell id="dzGT63xMT5lQV3Npohnb-14" value="push into Visited and Harvested" style="shape=callout;whiteSpace=wrap;html=1;perimeter=calloutPerimeter;position2=0.08;size=10;position=0.09;fillColor=#f5f5f5;strokeColor=#666666;fontSize=10;fontColor=#333333;" parent="1" vertex="1">
          <mxGeometry x="70" y="220" width="150" height="30" as="geometry" />
        </mxCell>
        <mxCell id="dzGT63xMT5lQV3Npohnb-15" value="push into Visited and Harvested" style="shape=callout;whiteSpace=wrap;html=1;perimeter=calloutPerimeter;position2=0.08;size=10;position=0.09;fillColor=#f5f5f5;strokeColor=#666666;fontSize=10;fontColor=#333333;" parent="1" vertex="1">
          <mxGeometry x="70" y="270" width="150" height="30" as="geometry" />
        </mxCell>
      </root>
    </mxGraphModel>
  </diagram>
</mxfile>
